<mxfile host="app.diagrams.net" agent="Mozilla/5.0 (X11; Linux x86_64) AppleWebKit/537.36 (KHTML, like Gecko) Chrome/131.0.0.0 Safari/537.36" version="24.8.8">
  <diagram name="Page-1" id="WBDv5_wROoBOC59eoUjj">
    <mxGraphModel dx="1050" dy="538" grid="1" gridSize="10" guides="1" tooltips="1" connect="1" arrows="1" fold="1" page="1" pageScale="1" pageWidth="827" pageHeight="1169" math="0" shadow="0">
      <root>
        <mxCell id="0" />
        <mxCell id="1" parent="0" />
        <mxCell id="DAipajvYqbnX_JBAI4qC-28" style="edgeStyle=orthogonalEdgeStyle;rounded=0;orthogonalLoop=1;jettySize=auto;html=1;exitX=0.5;exitY=1;exitDx=0;exitDy=0;entryX=0.5;entryY=0;entryDx=0;entryDy=0;endArrow=none;endFill=0;" edge="1" parent="1" source="DAipajvYqbnX_JBAI4qC-1" target="DAipajvYqbnX_JBAI4qC-25">
          <mxGeometry relative="1" as="geometry" />
        </mxCell>
        <mxCell id="DAipajvYqbnX_JBAI4qC-1" value="Platos" style="whiteSpace=wrap;html=1;align=center;" vertex="1" parent="1">
          <mxGeometry x="300" y="350" width="100" height="40" as="geometry" />
        </mxCell>
        <mxCell id="DAipajvYqbnX_JBAI4qC-3" value="Descripción" style="ellipse;whiteSpace=wrap;html=1;align=center;" vertex="1" parent="1">
          <mxGeometry x="314" y="270" width="100" height="40" as="geometry" />
        </mxCell>
        <mxCell id="DAipajvYqbnX_JBAI4qC-4" value="Dificultad" style="ellipse;whiteSpace=wrap;html=1;align=center;" vertex="1" parent="1">
          <mxGeometry x="170" y="340" width="100" height="40" as="geometry" />
        </mxCell>
        <mxCell id="DAipajvYqbnX_JBAI4qC-5" value="Fotografía" style="ellipse;whiteSpace=wrap;html=1;align=center;" vertex="1" parent="1">
          <mxGeometry x="140" y="390" width="100" height="40" as="geometry" />
        </mxCell>
        <mxCell id="DAipajvYqbnX_JBAI4qC-6" value="Precio" style="ellipse;whiteSpace=wrap;html=1;align=center;" vertex="1" parent="1">
          <mxGeometry x="140" y="280" width="100" height="40" as="geometry" />
        </mxCell>
        <mxCell id="DAipajvYqbnX_JBAI4qC-7" value="Nombre" style="ellipse;whiteSpace=wrap;html=1;align=center;fontStyle=4;" vertex="1" parent="1">
          <mxGeometry x="230" y="250" width="100" height="40" as="geometry" />
        </mxCell>
        <mxCell id="DAipajvYqbnX_JBAI4qC-32" style="edgeStyle=orthogonalEdgeStyle;rounded=0;orthogonalLoop=1;jettySize=auto;html=1;exitX=0.5;exitY=1;exitDx=0;exitDy=0;entryX=0.5;entryY=0;entryDx=0;entryDy=0;strokeColor=default;align=center;verticalAlign=middle;fontFamily=Helvetica;fontSize=11;fontColor=default;labelBackgroundColor=default;endArrow=none;endFill=0;" edge="1" parent="1" source="DAipajvYqbnX_JBAI4qC-10" target="DAipajvYqbnX_JBAI4qC-18">
          <mxGeometry relative="1" as="geometry" />
        </mxCell>
        <mxCell id="DAipajvYqbnX_JBAI4qC-10" value="Recetas" style="whiteSpace=wrap;html=1;align=center;" vertex="1" parent="1">
          <mxGeometry x="630" y="350" width="100" height="40" as="geometry" />
        </mxCell>
        <mxCell id="DAipajvYqbnX_JBAI4qC-30" value="" style="edgeStyle=orthogonalEdgeStyle;rounded=0;orthogonalLoop=1;jettySize=auto;html=1;endArrow=none;endFill=0;" edge="1" parent="1" source="DAipajvYqbnX_JBAI4qC-11" target="DAipajvYqbnX_JBAI4qC-1">
          <mxGeometry relative="1" as="geometry" />
        </mxCell>
        <mxCell id="DAipajvYqbnX_JBAI4qC-31" style="edgeStyle=orthogonalEdgeStyle;rounded=0;orthogonalLoop=1;jettySize=auto;html=1;exitX=1;exitY=0.5;exitDx=0;exitDy=0;endArrow=none;endFill=0;" edge="1" parent="1" source="DAipajvYqbnX_JBAI4qC-11" target="DAipajvYqbnX_JBAI4qC-10">
          <mxGeometry relative="1" as="geometry" />
        </mxCell>
        <mxCell id="DAipajvYqbnX_JBAI4qC-11" value="elaborados&lt;br&gt;mediante" style="shape=rhombus;perimeter=rhombusPerimeter;whiteSpace=wrap;html=1;align=center;" vertex="1" parent="1">
          <mxGeometry x="460" y="340" width="120" height="60" as="geometry" />
        </mxCell>
        <mxCell id="DAipajvYqbnX_JBAI4qC-12" value="Descripción" style="ellipse;whiteSpace=wrap;html=1;align=center;" vertex="1" parent="1">
          <mxGeometry x="170" y="595" width="100" height="40" as="geometry" />
        </mxCell>
        <mxCell id="DAipajvYqbnX_JBAI4qC-13" value="Descripción" style="ellipse;whiteSpace=wrap;html=1;align=center;" vertex="1" parent="1">
          <mxGeometry x="600" y="300" width="100" height="40" as="geometry" />
        </mxCell>
        <mxCell id="DAipajvYqbnX_JBAI4qC-14" value="Unidad de medida" style="ellipse;whiteSpace=wrap;html=1;align=center;" vertex="1" parent="1">
          <mxGeometry x="700" y="595" width="100" height="40" as="geometry" />
        </mxCell>
        <mxCell id="DAipajvYqbnX_JBAI4qC-15" value="Cantidad" style="ellipse;whiteSpace=wrap;html=1;align=center;" vertex="1" parent="1">
          <mxGeometry x="570" y="595" width="100" height="40" as="geometry" />
        </mxCell>
        <mxCell id="DAipajvYqbnX_JBAI4qC-16" value="Attribute" style="ellipse;shape=doubleEllipse;margin=3;whiteSpace=wrap;html=1;align=center;" vertex="1" parent="1">
          <mxGeometry x="740" y="110" width="100" height="40" as="geometry" />
        </mxCell>
        <mxCell id="DAipajvYqbnX_JBAI4qC-17" value="Ingredientes" style="whiteSpace=wrap;html=1;align=center;" vertex="1" parent="1">
          <mxGeometry x="630" y="545" width="100" height="40" as="geometry" />
        </mxCell>
        <mxCell id="DAipajvYqbnX_JBAI4qC-33" style="edgeStyle=orthogonalEdgeStyle;rounded=0;orthogonalLoop=1;jettySize=auto;html=1;exitX=0.5;exitY=1;exitDx=0;exitDy=0;strokeColor=default;align=center;verticalAlign=middle;fontFamily=Helvetica;fontSize=11;fontColor=default;labelBackgroundColor=default;endArrow=none;endFill=0;" edge="1" parent="1" source="DAipajvYqbnX_JBAI4qC-18" target="DAipajvYqbnX_JBAI4qC-17">
          <mxGeometry relative="1" as="geometry">
            <mxPoint x="620" y="530" as="targetPoint" />
          </mxGeometry>
        </mxCell>
        <mxCell id="DAipajvYqbnX_JBAI4qC-18" value="requieren" style="shape=rhombus;perimeter=rhombusPerimeter;whiteSpace=wrap;html=1;align=center;" vertex="1" parent="1">
          <mxGeometry x="620" y="445" width="120" height="60" as="geometry" />
        </mxCell>
        <mxCell id="DAipajvYqbnX_JBAI4qC-19" value="Stock" style="ellipse;whiteSpace=wrap;html=1;align=center;" vertex="1" parent="1">
          <mxGeometry x="730" y="500" width="100" height="40" as="geometry" />
        </mxCell>
        <mxCell id="DAipajvYqbnX_JBAI4qC-20" value="Nombre" style="ellipse;whiteSpace=wrap;html=1;align=center;fontStyle=4;" vertex="1" parent="1">
          <mxGeometry x="485" y="555" width="100" height="40" as="geometry" />
        </mxCell>
        <mxCell id="DAipajvYqbnX_JBAI4qC-21" value="Categorías" style="whiteSpace=wrap;html=1;align=center;" vertex="1" parent="1">
          <mxGeometry x="300" y="520" width="100" height="40" as="geometry" />
        </mxCell>
        <mxCell id="DAipajvYqbnX_JBAI4qC-29" style="edgeStyle=orthogonalEdgeStyle;rounded=0;orthogonalLoop=1;jettySize=auto;html=1;exitX=0.5;exitY=1;exitDx=0;exitDy=0;entryX=0.5;entryY=0;entryDx=0;entryDy=0;endArrow=none;endFill=0;" edge="1" parent="1" source="DAipajvYqbnX_JBAI4qC-25" target="DAipajvYqbnX_JBAI4qC-21">
          <mxGeometry relative="1" as="geometry" />
        </mxCell>
        <mxCell id="DAipajvYqbnX_JBAI4qC-25" value="se agrupan" style="shape=rhombus;perimeter=rhombusPerimeter;whiteSpace=wrap;html=1;align=center;" vertex="1" parent="1">
          <mxGeometry x="290" y="430" width="120" height="60" as="geometry" />
        </mxCell>
        <mxCell id="DAipajvYqbnX_JBAI4qC-26" value="Nombre" style="ellipse;whiteSpace=wrap;html=1;align=center;fontStyle=4;" vertex="1" parent="1">
          <mxGeometry x="160" y="520" width="100" height="40" as="geometry" />
        </mxCell>
        <mxCell id="DAipajvYqbnX_JBAI4qC-27" value="Encargado" style="ellipse;whiteSpace=wrap;html=1;align=center;" vertex="1" parent="1">
          <mxGeometry x="270" y="595" width="100" height="40" as="geometry" />
        </mxCell>
        <mxCell id="DAipajvYqbnX_JBAI4qC-36" value="(1,1)" style="text;strokeColor=none;fillColor=none;spacingLeft=4;spacingRight=4;overflow=hidden;rotatable=0;points=[[0,0.5],[1,0.5]];portConstraint=eastwest;fontSize=12;whiteSpace=wrap;html=1;" vertex="1" parent="1">
          <mxGeometry x="344" y="490" width="40" height="30" as="geometry" />
        </mxCell>
        <mxCell id="DAipajvYqbnX_JBAI4qC-37" value="(1,N)" style="text;strokeColor=none;fillColor=none;spacingLeft=4;spacingRight=4;overflow=hidden;rotatable=0;points=[[0,0.5],[1,0.5]];portConstraint=eastwest;fontSize=12;whiteSpace=wrap;html=1;" vertex="1" parent="1">
          <mxGeometry x="360" y="390" width="40" height="30" as="geometry" />
        </mxCell>
        <mxCell id="DAipajvYqbnX_JBAI4qC-38" value="N:1" style="text;html=1;align=center;verticalAlign=middle;resizable=0;points=[];autosize=1;strokeColor=none;fillColor=none;" vertex="1" parent="1">
          <mxGeometry x="410" y="445" width="40" height="30" as="geometry" />
        </mxCell>
        <mxCell id="DAipajvYqbnX_JBAI4qC-39" value="(1:1)" style="text;html=1;align=center;verticalAlign=middle;resizable=0;points=[];autosize=1;strokeColor=none;fillColor=none;" vertex="1" parent="1">
          <mxGeometry x="585" y="338" width="50" height="30" as="geometry" />
        </mxCell>
        <mxCell id="DAipajvYqbnX_JBAI4qC-40" value="(1:1)" style="text;html=1;align=center;verticalAlign=middle;resizable=0;points=[];autosize=1;strokeColor=none;fillColor=none;" vertex="1" parent="1">
          <mxGeometry x="400" y="338" width="50" height="30" as="geometry" />
        </mxCell>
        <mxCell id="DAipajvYqbnX_JBAI4qC-41" value="1:1" style="text;html=1;align=center;verticalAlign=middle;resizable=0;points=[];autosize=1;strokeColor=none;fillColor=none;" vertex="1" parent="1">
          <mxGeometry x="500" y="310" width="40" height="30" as="geometry" />
        </mxCell>
        <mxCell id="DAipajvYqbnX_JBAI4qC-42" value="(1,N)" style="text;html=1;align=center;verticalAlign=middle;resizable=0;points=[];autosize=1;strokeColor=none;fillColor=none;" vertex="1" parent="1">
          <mxGeometry x="685" y="518" width="50" height="30" as="geometry" />
        </mxCell>
        <mxCell id="DAipajvYqbnX_JBAI4qC-43" value="(1,M)" style="text;html=1;align=center;verticalAlign=middle;resizable=0;points=[];autosize=1;strokeColor=none;fillColor=none;" vertex="1" parent="1">
          <mxGeometry x="675" y="388" width="50" height="30" as="geometry" />
        </mxCell>
        <mxCell id="DAipajvYqbnX_JBAI4qC-44" value="M:N" style="text;html=1;align=center;verticalAlign=middle;resizable=0;points=[];autosize=1;strokeColor=none;fillColor=none;" vertex="1" parent="1">
          <mxGeometry x="745" y="458" width="50" height="30" as="geometry" />
        </mxCell>
      </root>
    </mxGraphModel>
  </diagram>
</mxfile>
